<svg width="1286" height="594" viewBox="0 0 1286 594" fill="none" xmlns="http://www.w3.org/2000/svg">
<g id="Frame 1">
<rect width="1286" height="594" fill="white"/>
<g id="Group 8">
<rect id="Rectangle 1" x="24" y="408" width="224" height="52" fill="white"/>
<text id="HTML5" fill="#201A23" xml:space="preserve" style="white-space: pre" font-family="Chango" font-size="48" letter-spacing="0em"><tspan x="24" y="452.696">HTML5</tspan></text>
</g>
<g id="Group 10">
<rect id="Rectangle 2" x="801" y="364" width="176" height="52" fill="white"/>
<text id="KIVY" fill="#201A23" xml:space="preserve" style="white-space: pre" font-family="Chango" font-size="48" letter-spacing="0em"><tspan x="808" y="405.696">KIVY</tspan></text>
</g>
<g id="Group 11">
<rect id="Rectangle 1_2" x="832" y="484" width="264" height="52" fill="white"/>
<text id="ROMDev" fill="#201A23" xml:space="preserve" style="white-space: pre" font-family="Chango" font-size="48" letter-spacing="0em"><tspan x="833" y="528.696">ROMDev</tspan></text>
</g>
<g id="Group 19">
<rect id="Rectangle 1_3" x="1221" y="591" width="588" height="52" transform="rotate(-90 1221 591)" fill="white"/>
<text id="BEAUTIFULSOUP4" transform="translate(1214 591) rotate(-90)" fill="#201A23" xml:space="preserve" style="white-space: pre" font-family="Chango" font-size="48" letter-spacing="0em"><tspan x="0" y="47.696">BEAUTIFULSOUP4</tspan></text>
</g>
<g id="Group 14">
<rect id="Rectangle 1_4" x="24" y="519" width="330" height="52" fill="white"/>
<text id="SELENIUM" fill="#201A23" xml:space="preserve" style="white-space: pre" font-family="Chango" font-size="48" letter-spacing="0em"><tspan x="24" y="560.696">SELENIUM</tspan></text>
</g>
<g id="Group 9">
<rect id="Rectangle 2_2" x="790" y="257" width="409" height="52" fill="white"/>
<text id="BACKBLAZE" fill="#201A23" xml:space="preserve" style="white-space: pre" font-family="Chango" font-size="48" letter-spacing="0em"><tspan x="790" y="298.696">BACKBLAZE</tspan></text>
</g>
<g id="Group 12">
<rect id="Rectangle 2_3" x="1054" y="411" width="85" height="52" fill="white"/>
<text id="JS" fill="#201A23" xml:space="preserve" style="white-space: pre" font-family="Chango" font-size="48" letter-spacing="0em"><tspan x="1060" y="452.696">JS</tspan></text>
</g>
<g id="Group 20">
<rect id="Rectangle 1_5" x="1019" y="66" width="156" height="52" fill="white"/>
<text id="CSS3" fill="#201A23" xml:space="preserve" style="white-space: pre" font-family="Chango" font-size="48" letter-spacing="0em"><tspan x="1019" y="110.696">CSS3</tspan></text>
</g>
<g id="Group 5">
<rect id="Rectangle 1_6" x="511" y="335" width="109" height="52" fill="white"/>
<text id="GIT" fill="#201A23" xml:space="preserve" style="white-space: pre" font-family="Chango" font-size="48" letter-spacing="0em"><tspan x="511" y="376.696">GIT</tspan></text>
</g>
<g id="Group 3">
<rect id="Rectangle 1_7" x="24" y="43" width="278" height="52" fill="white"/>
<text id="PYTHON" fill="#201A23" xml:space="preserve" style="white-space: pre" font-family="Chango" font-size="48" letter-spacing="0em"><tspan x="24" y="81.696">PYTHON</tspan></text>
</g>
<g id="Group 18">
<rect id="Rectangle 1_8" x="711" y="529" width="411" height="52" transform="rotate(-90 711 529)" fill="white"/>
<text id="BOOTSTRAP" transform="translate(769 121) rotate(90)" fill="#201A23" xml:space="preserve" style="white-space: pre" font-family="Chango" font-size="48" letter-spacing="0em"><tspan x="0" y="47.696">BOOTSTRAP</tspan></text>
</g>
<g id="Group 6">
<rect id="Rectangle 1_9" x="544" y="504" width="116" height="52" fill="white"/>
<text id="C++" fill="#201A23" xml:space="preserve" style="white-space: pre" font-family="Chango" font-size="48" letter-spacing="0em"><tspan x="544" y="550.696">C++</tspan></text>
</g>
<g id="Group 4">
<rect id="Rectangle 1_10" x="386" y="254" width="179" height="52" fill="white"/>
<text id="DART" fill="#201A23" xml:space="preserve" style="white-space: pre" font-family="Chango" font-size="48" letter-spacing="0em"><tspan x="385" y="293.696">DART</tspan></text>
</g>
<g id="Group 13">
<rect id="Rectangle 1_11" x="832" y="147" width="222" height="52" fill="white"/>
<text id="FLASK" fill="#201A23" xml:space="preserve" style="white-space: pre" font-family="Chango" font-size="48" letter-spacing="0em"><tspan x="833" y="188.696">FLASK</tspan></text>
</g>
<g id="Group 7">
<rect id="Rectangle 1_12" x="385" y="427" width="288" height="52" fill="white"/>
<text id="REACTJS" fill="#201A23" xml:space="preserve" style="white-space: pre" font-family="Chango" font-size="48" letter-spacing="0em"><tspan x="385" y="468.696">REACTJS</tspan></text>
</g>
<g id="Group 17">
<rect id="Rectangle 1_13" x="312" y="502" width="458" height="52" transform="rotate(-90 312 502)" fill="white"/>
<text id="ILLUSTRATOR" transform="translate(306 504) rotate(-90)" fill="#201A23" xml:space="preserve" style="white-space: pre" font-family="Chango" font-size="48" letter-spacing="0em"><tspan x="0" y="47.696">ILLUSTRATOR</tspan></text>
</g>
<g id="Group 16">
<rect id="Rectangle 1_14" x="40" y="297" width="169" height="52" transform="rotate(-90 40 297)" fill="white"/>
<text id="SASS" transform="translate(37 297) rotate(-90)" fill="#201A23" xml:space="preserve" style="white-space: pre" font-family="Chango" font-size="48" letter-spacing="0em"><tspan x="0" y="47.696">SASS</tspan></text>
</g>
<g id="Group 15">
<rect id="Rectangle 1_15" x="171" y="377" width="204" height="52" transform="rotate(-90 171 377)" fill="white"/>
<text id="LINUX" transform="translate(229 171) rotate(90)" fill="#201A23" xml:space="preserve" style="white-space: pre" font-family="Chango" font-size="48" letter-spacing="0em"><tspan x="0" y="47.696">LINUX</tspan></text>
</g>
<g id="Group 2">
<rect id="Rectangle 1_16" x="458" y="37" width="474" height="52" fill="white"/>
<text id="PREMIEREPRO" fill="#201A23" xml:space="preserve" style="white-space: pre" font-family="Chango" font-size="48" letter-spacing="0em"><tspan x="463" y="80.696">PREMIEREPRO</tspan></text>
</g>
<g id="Group 1">
<rect id="Rectangle 1_17" x="385" y="121" width="288" height="52" fill="white"/>
<text id="FLUTTER" fill="#201A23" xml:space="preserve" style="white-space: pre" font-family="Chango" font-size="48" letter-spacing="0em"><tspan x="385" y="162.696">FLUTTER</tspan></text>
</g>
<g id="Group 21">
<g id="Group 7_2">
<g id="Group 1_2">
<line id="Line 1" x1="1162.57" y1="378.282" x2="1161.26" y2="382.196" stroke="black"/>
<line id="Line 2" x1="1162.57" y1="378.282" x2="1161.26" y2="382.196" stroke="black"/>
<line id="Line 3" x1="1163.03" y1="378.676" x2="1160.67" y2="382.058" stroke="black"/>
<line id="Line 4" x1="1163.38" y1="379.219" x2="1160.11" y2="381.735" stroke="black"/>
<line id="Line 5" x1="1163.56" y1="379.953" x2="1159.62" y2="381.164" stroke="black"/>
<line id="Line 6" x1="1163.49" y1="380.632" x2="1159.37" y2="380.529" stroke="black"/>
<line id="Line 7" x1="1163.08" y1="381.433" x2="1159.37" y2="379.628" stroke="black"/>
<line id="Line 8" x1="1163.08" y1="381.433" x2="1159.37" y2="379.628" stroke="black"/>
<line id="Line 9" x1="1162.63" y1="381.842" x2="1159.58" y2="379.058" stroke="black"/>
<line id="Line 10" x1="1162.04" y1="382.117" x2="1159.98" y2="378.546" stroke="black"/>
<line id="Line 11" x1="1161.29" y1="382.198" x2="1160.61" y2="378.129" stroke="black"/>
<line id="Line 12" x1="1160.63" y1="382.041" x2="1161.27" y2="377.965" stroke="black"/>
</g>
<g id="Vector">
<path d="M1154.06 338.987L1155.78 340.018C1159.14 342.039 1163.34 342.039 1166.7 340.018L1168.69 338.82C1174.71 335.202 1182.5 336.907 1186.46 342.706L1186.67 343.014C1189.05 346.513 1190.46 350.587 1190.74 354.814L1191.16 361.195C1191.68 369.073 1187.87 376.61 1181.22 380.868L1179.92 381.705C1175.04 384.828 1168.75 384.741 1163.95 381.504C1162.32 380.4 1160.17 380.396 1158.53 381.499C1153.73 384.74 1147.44 384.777 1142.6 381.592L1141.45 380.838C1135.01 376.6 1131.39 369.184 1132.01 361.496L1132.6 354.264C1132.91 350.384 1134.17 346.61 1136.23 343.308C1140.01 337.27 1147.96 335.316 1154.06 338.987Z" fill="#FF0000"/>
<path d="M1154.06 338.987L1155.78 340.018C1159.14 342.039 1163.34 342.039 1166.7 340.018L1168.69 338.82C1174.71 335.202 1182.5 336.907 1186.46 342.706L1186.67 343.014C1189.05 346.513 1190.46 350.587 1190.74 354.814L1191.16 361.195C1191.68 369.073 1187.87 376.61 1181.22 380.868L1179.92 381.705C1175.04 384.828 1168.75 384.741 1163.95 381.504C1162.32 380.4 1160.17 380.396 1158.53 381.499C1153.73 384.74 1147.44 384.777 1142.6 381.592L1141.45 380.838C1135.01 376.6 1131.39 369.184 1132.01 361.496L1132.6 354.264C1132.91 350.384 1134.17 346.61 1136.23 343.308C1140.01 337.27 1147.96 335.316 1154.06 338.987Z" fill="url(#paint0_radial_0_3)" fill-opacity="0.4"/>
<path d="M1154.06 338.987L1155.78 340.018C1159.14 342.039 1163.34 342.039 1166.7 340.018L1168.69 338.82C1174.71 335.202 1182.5 336.907 1186.46 342.706L1186.67 343.014C1189.05 346.513 1190.46 350.587 1190.74 354.814L1191.16 361.195C1191.68 369.073 1187.87 376.61 1181.22 380.868L1179.92 381.705C1175.04 384.828 1168.75 384.741 1163.95 381.504C1162.32 380.4 1160.17 380.396 1158.53 381.499C1153.73 384.74 1147.44 384.777 1142.6 381.592L1141.45 380.838C1135.01 376.6 1131.39 369.184 1132.01 361.496L1132.6 354.264C1132.91 350.384 1134.17 346.61 1136.23 343.308C1140.01 337.27 1147.96 335.316 1154.06 338.987Z" fill="url(#paint1_radial_0_3)" fill-opacity="0.4"/>
<path d="M1154.06 338.987L1155.78 340.018C1159.14 342.039 1163.34 342.039 1166.7 340.018L1168.69 338.82C1174.71 335.202 1182.5 336.907 1186.46 342.706L1186.67 343.014C1189.05 346.513 1190.46 350.587 1190.74 354.814L1191.16 361.195C1191.68 369.073 1187.87 376.61 1181.22 380.868L1179.92 381.705C1175.04 384.828 1168.75 384.741 1163.95 381.504C1162.32 380.4 1160.17 380.396 1158.53 381.499C1153.73 384.74 1147.44 384.777 1142.6 381.592L1141.45 380.838C1135.01 376.6 1131.39 369.184 1132.01 361.496L1132.6 354.264C1132.91 350.384 1134.17 346.61 1136.23 343.308C1140.01 337.27 1147.96 335.316 1154.06 338.987Z" stroke="black"/>
</g>
<path id="Rectangle 1_18" d="M1158.92 328.972L1158.92 328.993L1158.93 329.014L1160.65 332.375C1161.83 334.674 1162.32 337.263 1162.07 339.834L1161.9 341.561C1161.88 341.803 1161.68 341.987 1161.43 341.987C1161.15 341.987 1160.94 341.745 1160.97 341.467L1161.18 339.397C1161.4 337.2 1161.04 334.982 1160.13 332.97L1158.71 329.819C1158.44 329.225 1157.96 328.749 1157.37 328.48C1157.35 328.473 1157.35 328.467 1157.35 328.463C1157.34 328.458 1157.34 328.449 1157.34 328.437C1157.34 328.425 1157.34 328.416 1157.35 328.411C1157.35 328.407 1157.35 328.401 1157.37 328.394L1157.62 328.267C1158.08 328.04 1158.63 328.249 1158.81 328.72L1158.92 328.972Z" fill="#3D2100" stroke="black"/>
<g id="Vector_2">
<path d="M1164.05 330.765L1164.47 334.258L1167.92 334.921C1169.74 335.269 1171.62 334.729 1172.97 333.467C1174.11 332.404 1174.9 331.021 1175.24 329.5L1176.74 322.817L1169.97 323.842C1168.43 324.076 1166.99 324.769 1165.85 325.832C1164.5 327.095 1163.83 328.927 1164.05 330.765Z" fill="#05FF00"/>
<path d="M1162.29 336.294L1176.74 322.818M1167.25 327.804L1165.7 333.114L1171.1 331.935M1169.92 326.843L1168.97 330.063L1172.25 329.337M1174.23 324.355L1173.74 325.614L1175.03 325.214M1172.34 325.608L1171.69 327.521L1173.65 327.012M1164.47 334.258L1164.05 330.765C1163.83 328.927 1164.5 327.095 1165.85 325.832C1166.99 324.769 1168.43 324.076 1169.97 323.842L1176.74 322.817L1175.24 329.5C1174.9 331.021 1174.11 332.404 1172.97 333.467C1171.62 334.729 1169.74 335.269 1167.92 334.921L1164.47 334.258Z" stroke="black"/>
</g>
<path id="Vector 1" d="M1158.73 342.487L1160.05 343.028C1161.46 343.603 1163.06 343.397 1164.27 342.487V342.487" stroke="black"/>
</g>
<g id="Group 9_2">
<g id="Group 6_2">
<path id="Vector 2" d="M1157.91 358.005L1154.93 343.139L1163.44 352.879L1165.49 350.11L1167.13 355.647L1187.43 351.443L1163.44 362.413L1171.44 367.129L1155.96 363.951L1144.37 365.899L1152.88 360.055L1146.12 350.11L1157.91 358.005Z" fill="url(#paint2_radial_0_3)" stroke="black"/>
<g id="Group 5_2">
<line id="Line 13" x1="1.5" y1="-1.5" x2="18.7246" y2="-1.5" transform="matrix(-0.279876 -0.362025 -0.674078 1.15595 1158.54 359.858)" stroke="#7D2D00" stroke-width="3" stroke-linecap="round"/>
<line id="Line 14" x1="1.5" y1="-1.5" x2="8.86689" y2="-1.5" transform="matrix(-0.444803 -0.050507 -0.578672 1.21026 1155.06 355.227)" stroke="#7D2D00" stroke-width="3" stroke-linecap="round"/>
<line id="Line 15" x1="1.5" y1="-1.5" x2="8.86689" y2="-1.5" transform="matrix(-0.444803 -0.050507 -0.578672 1.21026 1154.04 353.633)" stroke="#7D2D00" stroke-width="3" stroke-linecap="round"/>
<line id="Line 16" x1="1.5" y1="-1.5" x2="8.86689" y2="-1.5" transform="matrix(-0.444803 -0.050507 -0.578672 1.21026 1153.36 352.22)" stroke="#7D2D00" stroke-width="3" stroke-linecap="round"/>
<line id="Line 17" x1="1.5" y1="-1.5" x2="8.86691" y2="-1.5" transform="matrix(0.0476463 -0.836584 0.728314 -0.876023 1155.52 354.171)" stroke="#7D2D00" stroke-width="3" stroke-linecap="round"/>
<line id="Line 18" x1="1.5" y1="-1.5" x2="8.86691" y2="-1.5" transform="matrix(0.0476463 -0.836584 0.728314 -0.876023 1154.64 352.411)" stroke="#7D2D00" stroke-width="3" stroke-linecap="round"/>
<line id="Line 19" x1="1.5" y1="-1.5" x2="8.86691" y2="-1.5" transform="matrix(0.0476463 -0.836584 0.728314 -0.876023 1153.84 351.639)" stroke="#7D2D00" stroke-width="3" stroke-linecap="round"/>
</g>
</g>
<line id="Line 20" x1="1144.6" y1="365.309" x2="1158.21" y2="359.795" stroke="black" stroke-opacity="0.03"/>
<line id="Line 21" x1="1159.39" y1="359.077" x2="1166.42" y2="365.399" stroke="black" stroke-opacity="0.03"/>
<line id="Line 22" x1="1159.28" y1="359.71" x2="1156.22" y2="364.72" stroke="black" stroke-opacity="0.03"/>
</g>
</g>
</g>
<defs>
<radialGradient id="paint0_radial_0_3" cx="0" cy="0" r="1" gradientUnits="userSpaceOnUse" gradientTransform="translate(1176.51 349.011) rotate(122.276) scale(3.66525 4.1042)">
<stop offset="0.8625" stop-color="white"/>
<stop offset="1" stop-color="#FF0000" stop-opacity="0.31"/>
</radialGradient>
<radialGradient id="paint1_radial_0_3" cx="0" cy="0" r="1" gradientUnits="userSpaceOnUse" gradientTransform="translate(1145.35 374.455) rotate(-41.5167) scale(13.2875 14.8788)">
<stop stop-color="white"/>
<stop offset="0.0001" stop-color="white"/>
<stop offset="0.928027" stop-color="#FF0000"/>
</radialGradient>
<radialGradient id="paint2_radial_0_3" cx="0" cy="0" r="1" gradientUnits="userSpaceOnUse" gradientTransform="translate(1159.38 359.286) rotate(78.69) scale(12.4749 22.3908)">
<stop stop-color="#BFBDB3"/>
<stop offset="0.160339" stop-color="#FDEFA4"/>
</radialGradient>
</defs>
</svg>
