<svg xmlns="http://www.w3.org/2000/svg" xmlns:xlink="http://www.w3.org/1999/xlink" viewBox="0 0 3645.35 1683.78"><defs><style>.cls-1{fill:#fff;}.cls-2,.cls-3{isolation:isolate;}.cls-3{font-size:136.06px;fill:#201a23;font-family:Chango-Regular, Chango;}.cls-11,.cls-12,.cls-4{fill:none;}.cls-10,.cls-12,.cls-4,.cls-8{stroke:#000;}.cls-5{fill:red;}.cls-6,.cls-7{fill-opacity:0.4;}.cls-6{fill:url(#radial-gradient);}.cls-7{fill:url(#radial-gradient-2);}.cls-8{fill:#3d2100;}.cls-9{fill:#05ff00;}.cls-10{fill:url(#radial-gradient-3);}.cls-11{stroke:#7d2d00;stroke-linecap:round;stroke-width:3px;}.cls-12{stroke-opacity:0.03;}</style><radialGradient id="radial-gradient" cx="5340.11" cy="-119.38" r="2.83" gradientTransform="matrix(-1.96, 3.1, 3.47, 2.19, 14201.09, -15297.62)" gradientUnits="userSpaceOnUse"><stop offset="0.86" stop-color="#fff"/><stop offset="1" stop-color="red" stop-opacity="0.31"/></radialGradient><radialGradient id="radial-gradient-2" cx="4475.38" cy="289.7" r="2.83" gradientTransform="matrix(9.95, -8.81, -9.86, -11.14, -38422.58, 43705.6)" gradientUnits="userSpaceOnUse"><stop offset="0" stop-color="#fff"/><stop offset="0.93" stop-color="red"/></radialGradient><radialGradient id="radial-gradient-3" cx="4744.25" cy="116.39" r="2.83" gradientTransform="matrix(2.45, 12.23, 21.96, -4.39, -10875.97, -56505.24)" gradientUnits="userSpaceOnUse"><stop offset="0" stop-color="#bfbdb3"/><stop offset="0.16" stop-color="#fdefa4"/></radialGradient></defs><g id="Layer_2" data-name="Layer 2"><g id="Layer_1-2" data-name="Layer 1"><g id="Frame_1" data-name="Frame 1"><rect class="cls-1" width="3645.35" height="1683.78"/><g id="Group_8" data-name="Group 8"><rect id="Rectangle_1" data-name="Rectangle 1" class="cls-1" x="68.03" y="1156.54" width="634.96" height="147.4"/><g id="HTML5" class="cls-2"><text class="cls-3" transform="translate(68.03 1283.23)">HTML5</text></g></g><g id="Group_10" data-name="Group 10"><rect id="Rectangle_2" data-name="Rectangle 2" class="cls-1" x="2270.55" y="1031.81" width="498.9" height="147.4"/><g id="KIVY" class="cls-2"><text class="cls-3" transform="translate(2290.39 1150.01)">KIVY</text></g></g><g id="Group_11" data-name="Group 11"><rect id="Rectangle_1_2" data-name="Rectangle 1_2" class="cls-1" x="2358.43" y="1371.97" width="748.35" height="147.4"/><g id="ROMDev" class="cls-2"><text class="cls-3" transform="translate(2361.26 1498.67)">ROMDev</text></g></g><g id="Group_19" data-name="Group 19"><rect id="Rectangle_1_3" data-name="Rectangle 1_3" class="cls-1" x="3461.1" y="8.5" width="147.4" height="1666.77"/><g id="BEAUTIFULSOUP4" class="cls-2"><text class="cls-3" transform="translate(3576.46 1675.28) rotate(-90)">BEAUTIFULSOUP4</text></g></g><g id="Group_14" data-name="Group 14"><rect id="Rectangle_1_4" data-name="Rectangle 1_4" class="cls-1" x="68.03" y="1471.18" width="935.43" height="147.4"/><g id="SELENIUM" class="cls-2"><text class="cls-3" transform="translate(68.03 1589.37)">SELENIUM</text></g></g><g id="Group_9" data-name="Group 9"><rect id="Rectangle_2_2" data-name="Rectangle 2_2" class="cls-1" x="2239.37" y="728.5" width="1159.37" height="147.4"/><g id="BACKBLAZE" class="cls-2"><text class="cls-3" transform="translate(2239.37 846.7)">BACKBLAZE</text></g></g><g id="Group_12" data-name="Group 12"><rect id="Rectangle_2_3" data-name="Rectangle 2_3" class="cls-1" x="2987.72" y="1165.04" width="240.94" height="147.4"/><g id="JS" class="cls-2"><text class="cls-3" transform="translate(3004.73 1283.23)">JS</text></g></g><g id="Group_20" data-name="Group 20"><rect id="Rectangle_1_5" data-name="Rectangle 1_5" class="cls-1" x="2888.5" y="187.09" width="442.2" height="147.4"/><g id="CSS3" class="cls-2"><text class="cls-3" transform="translate(2888.5 313.78)">CSS3</text></g></g><g id="Group_5" data-name="Group 5"><rect id="Rectangle_1_6" data-name="Rectangle 1_6" class="cls-1" x="1448.5" y="949.61" width="308.98" height="147.4"/><g id="GIT" class="cls-2"><text class="cls-3" transform="translate(1448.5 1067.8)">GIT</text></g></g><g id="Group_3" data-name="Group 3"><rect id="Rectangle_1_7" data-name="Rectangle 1_7" class="cls-1" x="68.03" y="121.89" width="788.03" height="147.4"/><g id="PYTHON" class="cls-2"><text class="cls-3" transform="translate(68.03 231.58)">PYTHON</text></g></g><g id="Group_18" data-name="Group 18"><rect id="Rectangle_1_8" data-name="Rectangle 1_8" class="cls-1" x="2015.43" y="334.49" width="147.4" height="1165.04"/><g id="BOOTSTRAP" class="cls-2"><text class="cls-3" transform="translate(2044.64 342.99) rotate(90)">BOOTSTRAP</text></g></g><g id="Group_6" data-name="Group 6"><rect id="Rectangle_1_9" data-name="Rectangle 1_9" class="cls-1" x="1542.05" y="1428.66" width="328.82" height="147.4"/><g id="C_" data-name="C++" class="cls-2"><text class="cls-3" transform="translate(1542.05 1561.03)">C++</text></g></g><g id="Group_4" data-name="Group 4"><rect id="Rectangle_1_10" data-name="Rectangle 1_10" class="cls-1" x="1094.17" y="720" width="507.4" height="147.4"/><g id="DART" class="cls-2"><text class="cls-3" transform="translate(1091.34 832.52)">DART</text></g></g><g id="Group_13" data-name="Group 13"><rect id="Rectangle_1_11" data-name="Rectangle 1_11" class="cls-1" x="2358.43" y="416.69" width="629.29" height="147.4"/><g id="FLASK" class="cls-2"><text class="cls-3" transform="translate(2361.26 534.89)">FLASK</text></g></g><g id="Group_7" data-name="Group 7"><rect id="Rectangle_1_12" data-name="Rectangle 1_12" class="cls-1" x="1091.34" y="1210.39" width="816.38" height="147.4"/><g id="REACTJS" class="cls-2"><text class="cls-3" transform="translate(1091.34 1328.59)">REACTJS</text></g></g><g id="Group_17" data-name="Group 17"><rect id="Rectangle_1_13" data-name="Rectangle 1_13" class="cls-1" x="884.41" y="124.72" width="147.4" height="1298.27"/><g id="ILLUSTRATOR" class="cls-2"><text class="cls-3" transform="translate(1002.6 1428.66) rotate(-90)">ILLUSTRATOR</text></g></g><g id="Group_16" data-name="Group 16"><rect id="Rectangle_1_14" data-name="Rectangle 1_14" class="cls-1" x="113.39" y="362.83" width="147.4" height="479.06"/><g id="SASS" class="cls-2"><text class="cls-3" transform="translate(240.08 841.89) rotate(-90)">SASS</text></g></g><g id="Group_15" data-name="Group 15"><rect id="Rectangle_1_15" data-name="Rectangle 1_15" class="cls-1" x="484.72" y="490.39" width="147.4" height="578.27"/><g id="LINUX" class="cls-2"><text class="cls-3" transform="translate(513.94 484.72) rotate(90)">LINUX</text></g></g><g id="Group_2" data-name="Group 2"><rect id="Rectangle_1_16" data-name="Rectangle 1_16" class="cls-1" x="1298.27" y="104.88" width="1343.62" height="147.4"/><g id="PREMIEREPRO" class="cls-2"><text class="cls-3" transform="translate(1312.44 228.74)">PREMIEREPRO</text></g></g><g id="Group_1" data-name="Group 1"><rect id="Rectangle_1_17" data-name="Rectangle 1_17" class="cls-1" x="1091.34" y="342.99" width="816.38" height="147.4"/><g id="FLUTTER" class="cls-2"><text class="cls-3" transform="translate(1091.34 461.19)">FLUTTER</text></g></g><g id="Group_21" data-name="Group 21"><g id="Group_7_2" data-name="Group 7_2"><g id="Group_1_2" data-name="Group 1_2"><line id="Line_1" data-name="Line 1" class="cls-4" x1="3295.47" y1="1072.3" x2="3291.76" y2="1083.39"/><line id="Line_2" data-name="Line 2" class="cls-4" x1="3295.47" y1="1072.3" x2="3291.76" y2="1083.39"/><line id="Line_3" data-name="Line 3" class="cls-4" x1="3296.78" y1="1073.41" x2="3290.09" y2="1083"/><line id="Line_4" data-name="Line 4" class="cls-4" x1="3297.77" y1="1074.95" x2="3288.5" y2="1082.08"/><line id="Line_5" data-name="Line 5" class="cls-4" x1="3298.28" y1="1077.03" x2="3287.11" y2="1080.46"/><line id="Line_6" data-name="Line 6" class="cls-4" x1="3298.08" y1="1078.96" x2="3286.4" y2="1078.66"/><line id="Line_7" data-name="Line 7" class="cls-4" x1="3296.92" y1="1081.23" x2="3286.4" y2="1076.11"/><line id="Line_8" data-name="Line 8" class="cls-4" x1="3296.92" y1="1081.23" x2="3286.4" y2="1076.11"/><line id="Line_9" data-name="Line 9" class="cls-4" x1="3295.64" y1="1082.39" x2="3287" y2="1074.5"/><line id="Line_10" data-name="Line 10" class="cls-4" x1="3293.97" y1="1083.17" x2="3288.13" y2="1073.04"/><line id="Line_11" data-name="Line 11" class="cls-4" x1="3291.85" y1="1083.4" x2="3289.92" y2="1071.86"/><line id="Line_12" data-name="Line 12" class="cls-4" x1="3289.97" y1="1082.95" x2="3291.79" y2="1071.4"/></g><g id="Vector"><path class="cls-5" d="M3271.35,960.91l4.88,2.92a30,30,0,0,0,30.95,0l5.64-3.4a37.56,37.56,0,0,1,50.37,11l.6.87a67.46,67.46,0,0,1,11.54,33.45l1.19,18.09a61.44,61.44,0,0,1-28.18,55.77l-3.68,2.37a41.29,41.29,0,0,1-45.27-.57,13.77,13.77,0,0,0-15.37,0,40.71,40.71,0,0,1-45.15.27l-3.26-2.14a59.86,59.86,0,0,1-26.76-54.83l1.67-20.5a69.25,69.25,0,0,1,10.29-31.05A37.15,37.15,0,0,1,3271.35,960.91Z"/><path class="cls-6" d="M3271.35,960.91l4.88,2.92a30,30,0,0,0,30.95,0l5.64-3.4a37.56,37.56,0,0,1,50.37,11l.6.87a67.46,67.46,0,0,1,11.54,33.45l1.19,18.09a61.44,61.44,0,0,1-28.18,55.77l-3.68,2.37a41.29,41.29,0,0,1-45.27-.57,13.77,13.77,0,0,0-15.37,0,40.71,40.71,0,0,1-45.15.27l-3.26-2.14a59.86,59.86,0,0,1-26.76-54.83l1.67-20.5a69.25,69.25,0,0,1,10.29-31.05A37.15,37.15,0,0,1,3271.35,960.91Z"/><path class="cls-7" d="M3271.35,960.91l4.88,2.92a30,30,0,0,0,30.95,0l5.64-3.4a37.56,37.56,0,0,1,50.37,11l.6.87a67.46,67.46,0,0,1,11.54,33.45l1.19,18.09a61.44,61.44,0,0,1-28.18,55.77l-3.68,2.37a41.29,41.29,0,0,1-45.27-.57,13.77,13.77,0,0,0-15.37,0,40.71,40.71,0,0,1-45.15.27l-3.26-2.14a59.86,59.86,0,0,1-26.76-54.83l1.67-20.5a69.25,69.25,0,0,1,10.29-31.05A37.15,37.15,0,0,1,3271.35,960.91Z"/><path class="cls-4" d="M3271.35,960.91l4.88,2.92a30,30,0,0,0,30.95,0l5.64-3.4a37.56,37.56,0,0,1,50.37,11l.6.87a67.46,67.46,0,0,1,11.54,33.45l1.19,18.09a61.44,61.44,0,0,1-28.18,55.77l-3.68,2.37a41.29,41.29,0,0,1-45.27-.57,13.77,13.77,0,0,0-15.37,0,40.71,40.71,0,0,1-45.15.27l-3.26-2.14a59.86,59.86,0,0,1-26.76-54.83l1.67-20.5a69.25,69.25,0,0,1,10.29-31.05A37.15,37.15,0,0,1,3271.35,960.91Z"/></g><path id="Rectangle_1_18" data-name="Rectangle 1_18" class="cls-8" d="M3285.13,932.52v.06l0,.06,4.87,9.53a38.12,38.12,0,0,1,4,21.14l-.49,4.89a1.32,1.32,0,1,1-2.63-.26l.59-5.87a35.54,35.54,0,0,0-3-18.22l-4-8.93a7.68,7.68,0,0,0-3.8-3.8c-.05,0-.05,0-.05,0s0,0,0-.08,0-.06,0-.07,0,0,.05,0l.71-.36a2.45,2.45,0,0,1,3.38,1.28Z"/><g id="Vector_2" data-name="Vector 2"><path class="cls-9" d="M3299.67,937.6l1.19,9.9,9.78,1.88a16.41,16.41,0,0,0,14.31-4.12,21.8,21.8,0,0,0,6.44-11.24l4.25-18.95L3316.45,918a22,22,0,0,0-11.68,5.64A16.46,16.46,0,0,0,3299.67,937.6Z"/><path class="cls-4" d="M3294.68,953.27l41-38.2m-26.9,14.14-4.39,15,15.3-3.34m-3.34-14.44-2.69,9.13,9.29-2.06m5.62-14.12-1.39,3.57,3.65-1.13m-7.62,1.11-1.84,5.43,5.55-1.45m-26,20.54-1.19-9.9a16.46,16.46,0,0,1,5.1-14,22,22,0,0,1,11.68-5.64l19.19-2.91L3331.39,934a21.8,21.8,0,0,1-6.44,11.24,16.41,16.41,0,0,1-14.31,4.12Z"/></g><path id="Vector_1" data-name="Vector 1" class="cls-4" d="M3284.59,970.83l3.74,1.53a12.2,12.2,0,0,0,12-1.53h0"/></g><g id="Group_9_2" data-name="Group 9_2"><g id="Group_6_2" data-name="Group 6_2"><path id="Vector_2-2" data-name="Vector 2" class="cls-10" d="M3282.26,1014.82l-8.44-42.14,24.12,27.61,5.81-7.85,4.65,15.69,57.54-11.91-68,31.09,22.68,13.37-43.88-9-32.86,5.52,24.13-16.56-19.17-28.19Z"/><g id="Group_5_2" data-name="Group 5_2"><line id="Line_13" data-name="Line 13" class="cls-11" x1="3285.73" y1="1013.62" x2="3272.06" y2="995.94"/><line id="Line_14" data-name="Line 14" class="cls-11" x1="3274.76" y1="1001.58" x2="3265.47" y2="1000.53"/><line id="Line_15" data-name="Line 15" class="cls-11" x1="3271.86" y1="997.06" x2="3262.58" y2="996.01"/><line id="Line_16" data-name="Line 16" class="cls-11" x1="3269.94" y1="993.06" x2="3260.65" y2="992"/><line id="Line_17" data-name="Line 17" class="cls-11" x1="3272.6" y1="1004.12" x2="3273.59" y2="986.65"/><line id="Line_18" data-name="Line 18" class="cls-11" x1="3270.1" y1="999.13" x2="3271.1" y2="981.66"/><line id="Line_19" data-name="Line 19" class="cls-11" x1="3267.83" y1="996.94" x2="3268.83" y2="979.47"/></g></g><line id="Line_20" data-name="Line 20" class="cls-12" x1="3244.54" y1="1035.52" x2="3283.11" y2="1019.89"/><line id="Line_21" data-name="Line 21" class="cls-12" x1="3286.46" y1="1017.86" x2="3306.39" y2="1035.78"/><line id="Line_22" data-name="Line 22" class="cls-12" x1="3286.15" y1="1019.65" x2="3277.47" y2="1033.85"/></g></g></g></g></g></svg>